# xmcd CD database file
#
# Track frame offsets:
#	150
#	13389
#	32028
#	45803
#	60641
#	70530
#	85028
#	98541
#	104108
#	134938
#
# Disc length: 1981 seconds
#
# Revision: 0
# Processed by: cddbd v1.5.1PL0 Copyright (c) Steve Scherf et al.
# Submitted via: CDex 1.51
#
DISCID=8107bb0a
DTITLE=Various Artist - Broken Hearted Blues
DYEAR=1900
DGENRE=Blues
TTITLE0=Lightnin' Hopkins - Trouble In Mind
TTITLE1=Barbara Dane - Girl Of Constant Sorry
TTITLE2=Leadbelly - Where Did You Sleep Last Night
TTITLE3=Mississippi Gred McDowell - You Ain't Gonna Worry My Life No More
TTITLE4=Odetta - Another Man Done Gone
TTITLE5=Big Bill Broonzy - Baby Please Don't Go
TTITLE6=Blind Lemon Jefferson - Deceitful Brownskin Blues
TTITLE7=Leadbelly - Borrow Love and Go
TTITLE8=Big Joe Williams - Blues For Gamblers
TTITLE9=Blind Lemon Jefferson - Black Snake Moan
EXTD=
EXTT0=
EXTT1=
EXTT2=
EXTT3=
EXTT4=
EXTT5=
EXTT6=
EXTT7=
EXTT8=
EXTT9=
PLAYORDER=
